<mxfile host="app.diagrams.net" modified="2021-09-26T18:03:03.132Z" agent="5.0 (Windows NT 10.0; Win64; x64) AppleWebKit/537.36 (KHTML, like Gecko) Chrome/93.0.4577.82 Safari/537.36" etag="-sx8MlpRDk_VnoKXyp6j" version="15.3.3" type="github">
  <diagram id="Ol2Z-qb5ksOoM-Y0ch4e" name="Page-1">
    <mxGraphModel dx="1488" dy="605" grid="0" gridSize="10" guides="1" tooltips="1" connect="1" arrows="1" fold="1" page="1" pageScale="1" pageWidth="827" pageHeight="1169" math="0" shadow="0">
      <root>
        <mxCell id="0" />
        <mxCell id="1" parent="0" />
        <mxCell id="f4AdVtEs-Pux7ZDf4t8M-1" value="1.1" style="swimlane;childLayout=stackLayout;horizontal=1;startSize=30;horizontalStack=0;rounded=1;fontSize=14;fontStyle=1;strokeWidth=2;resizeParent=0;resizeLast=1;shadow=0;dashed=0;align=center;hachureGap=4;pointerEvents=0;fillColor=#dae8fc;strokeColor=#6c8ebf;" vertex="1" parent="1">
          <mxGeometry x="349" y="120" width="130" height="120" as="geometry" />
        </mxCell>
        <mxCell id="f4AdVtEs-Pux7ZDf4t8M-2" value="Registration" style="align=center;spacingLeft=4;fontSize=14;verticalAlign=top;resizable=0;rotatable=0;part=1;" vertex="1" parent="f4AdVtEs-Pux7ZDf4t8M-1">
          <mxGeometry y="30" width="130" height="90" as="geometry" />
        </mxCell>
        <mxCell id="f4AdVtEs-Pux7ZDf4t8M-3" value="1.2" style="swimlane;childLayout=stackLayout;horizontal=1;startSize=30;horizontalStack=0;rounded=1;fontSize=14;fontStyle=1;strokeWidth=2;resizeParent=0;resizeLast=1;shadow=0;dashed=0;align=center;hachureGap=4;pointerEvents=0;fillColor=#dae8fc;strokeColor=#6c8ebf;" vertex="1" parent="1">
          <mxGeometry x="349" y="320" width="130" height="120" as="geometry" />
        </mxCell>
        <mxCell id="f4AdVtEs-Pux7ZDf4t8M-4" value="Validation" style="align=center;spacingLeft=4;fontSize=14;verticalAlign=top;resizable=0;rotatable=0;part=1;" vertex="1" parent="f4AdVtEs-Pux7ZDf4t8M-3">
          <mxGeometry y="30" width="130" height="90" as="geometry" />
        </mxCell>
        <mxCell id="f4AdVtEs-Pux7ZDf4t8M-5" value="&lt;b&gt;Office Employee&lt;/b&gt;" style="html=1;hachureGap=4;pointerEvents=0;fontSize=14;align=center;fillColor=#f8cecc;strokeColor=#b85450;" vertex="1" parent="1">
          <mxGeometry x="70" y="120" width="110" height="50" as="geometry" />
        </mxCell>
        <mxCell id="f4AdVtEs-Pux7ZDf4t8M-6" value="" style="endArrow=classic;html=1;fontSize=14;sourcePerimeterSpacing=8;targetPerimeterSpacing=8;entryX=0;entryY=0.556;entryDx=0;entryDy=0;entryPerimeter=0;" edge="1" parent="1" target="f4AdVtEs-Pux7ZDf4t8M-2">
          <mxGeometry width="50" height="50" relative="1" as="geometry">
            <mxPoint x="160" y="173" as="sourcePoint" />
            <mxPoint x="400" y="360" as="targetPoint" />
            <Array as="points">
              <mxPoint x="160" y="200" />
            </Array>
          </mxGeometry>
        </mxCell>
        <mxCell id="f4AdVtEs-Pux7ZDf4t8M-7" value="Insert Info" style="text;html=1;align=center;verticalAlign=middle;resizable=0;points=[];autosize=1;strokeColor=none;fillColor=none;fontSize=14;" vertex="1" parent="1">
          <mxGeometry x="220" y="170" width="80" height="20" as="geometry" />
        </mxCell>
        <mxCell id="f4AdVtEs-Pux7ZDf4t8M-8" value="" style="endArrow=classic;html=1;fontSize=14;sourcePerimeterSpacing=8;targetPerimeterSpacing=8;exitX=0;exitY=0;exitDx=0;exitDy=0;" edge="1" parent="1" source="f4AdVtEs-Pux7ZDf4t8M-4">
          <mxGeometry width="50" height="50" relative="1" as="geometry">
            <mxPoint x="350" y="410" as="sourcePoint" />
            <mxPoint x="120" y="172" as="targetPoint" />
            <Array as="points">
              <mxPoint x="120" y="350" />
            </Array>
          </mxGeometry>
        </mxCell>
        <mxCell id="f4AdVtEs-Pux7ZDf4t8M-9" value="Get Error Message" style="text;html=1;align=center;verticalAlign=middle;resizable=0;points=[];autosize=1;strokeColor=none;fillColor=none;fontSize=14;" vertex="1" parent="1">
          <mxGeometry x="180" y="330" width="130" height="20" as="geometry" />
        </mxCell>
        <mxCell id="f4AdVtEs-Pux7ZDf4t8M-10" value="" style="endArrow=classic;html=1;fontSize=14;sourcePerimeterSpacing=8;targetPerimeterSpacing=8;entryX=0.081;entryY=1.087;entryDx=0;entryDy=0;entryPerimeter=0;" edge="1" parent="1" target="f4AdVtEs-Pux7ZDf4t8M-5">
          <mxGeometry width="50" height="50" relative="1" as="geometry">
            <mxPoint x="344" y="400" as="sourcePoint" />
            <mxPoint x="400" y="360" as="targetPoint" />
            <Array as="points">
              <mxPoint x="81" y="400" />
            </Array>
          </mxGeometry>
        </mxCell>
        <mxCell id="f4AdVtEs-Pux7ZDf4t8M-11" value="Get Message Registration Successful&amp;nbsp;" style="text;html=1;align=center;verticalAlign=middle;resizable=0;points=[];autosize=1;strokeColor=none;fillColor=none;fontSize=14;" vertex="1" parent="1">
          <mxGeometry x="99" y="379" width="250" height="20" as="geometry" />
        </mxCell>
        <mxCell id="f4AdVtEs-Pux7ZDf4t8M-12" value="&lt;b&gt;D1&amp;nbsp; &amp;nbsp;TSM&lt;/b&gt;" style="html=1;dashed=0;whitespace=wrap;shape=mxgraph.dfd.dataStoreID;align=left;spacingLeft=3;points=[[0,0],[0.5,0],[1,0],[0,0.5],[1,0.5],[0,1],[0.5,1],[1,1]];hachureGap=4;pointerEvents=0;fontSize=14;" vertex="1" parent="1">
          <mxGeometry x="660" y="280" width="100" height="30" as="geometry" />
        </mxCell>
        <mxCell id="f4AdVtEs-Pux7ZDf4t8M-14" value="" style="endArrow=classic;html=1;fontSize=14;sourcePerimeterSpacing=8;targetPerimeterSpacing=8;exitX=1;exitY=0.25;exitDx=0;exitDy=0;entryX=0.194;entryY=1.09;entryDx=0;entryDy=0;entryPerimeter=0;" edge="1" parent="1" source="f4AdVtEs-Pux7ZDf4t8M-4" target="f4AdVtEs-Pux7ZDf4t8M-12">
          <mxGeometry width="50" height="50" relative="1" as="geometry">
            <mxPoint x="350" y="410" as="sourcePoint" />
            <mxPoint x="400" y="360" as="targetPoint" />
            <Array as="points">
              <mxPoint x="679" y="373" />
            </Array>
          </mxGeometry>
        </mxCell>
        <mxCell id="f4AdVtEs-Pux7ZDf4t8M-15" value="Check Information" style="text;html=1;align=center;verticalAlign=middle;resizable=0;points=[];autosize=1;strokeColor=none;fillColor=none;fontSize=14;" vertex="1" parent="1">
          <mxGeometry x="510" y="350" width="130" height="20" as="geometry" />
        </mxCell>
        <mxCell id="f4AdVtEs-Pux7ZDf4t8M-16" value="" style="endArrow=classic;html=1;fontSize=14;sourcePerimeterSpacing=8;targetPerimeterSpacing=8;exitX=1;exitY=0.5;exitDx=0;exitDy=0;entryX=0.146;entryY=-0.102;entryDx=0;entryDy=0;entryPerimeter=0;" edge="1" parent="1" source="f4AdVtEs-Pux7ZDf4t8M-2" target="f4AdVtEs-Pux7ZDf4t8M-12">
          <mxGeometry width="50" height="50" relative="1" as="geometry">
            <mxPoint x="350" y="410" as="sourcePoint" />
            <mxPoint x="400" y="360" as="targetPoint" />
            <Array as="points">
              <mxPoint x="675" y="195" />
            </Array>
          </mxGeometry>
        </mxCell>
        <mxCell id="f4AdVtEs-Pux7ZDf4t8M-17" value="Store Data" style="text;html=1;align=center;verticalAlign=middle;resizable=0;points=[];autosize=1;strokeColor=none;fillColor=none;fontSize=14;" vertex="1" parent="1">
          <mxGeometry x="550" y="170" width="80" height="20" as="geometry" />
        </mxCell>
        <mxCell id="f4AdVtEs-Pux7ZDf4t8M-18" value="" style="endArrow=classic;html=1;fontSize=14;sourcePerimeterSpacing=8;targetPerimeterSpacing=8;exitX=0.398;exitY=1.018;exitDx=0;exitDy=0;exitPerimeter=0;" edge="1" parent="1" source="f4AdVtEs-Pux7ZDf4t8M-4">
          <mxGeometry width="50" height="50" relative="1" as="geometry">
            <mxPoint x="350" y="520" as="sourcePoint" />
            <mxPoint x="400" y="470" as="targetPoint" />
          </mxGeometry>
        </mxCell>
        <mxCell id="f4AdVtEs-Pux7ZDf4t8M-19" value="Go to Login" style="text;html=1;align=center;verticalAlign=middle;resizable=0;points=[];autosize=1;strokeColor=none;fillColor=none;fontSize=14;" vertex="1" parent="1">
          <mxGeometry x="360" y="470" width="90" height="20" as="geometry" />
        </mxCell>
      </root>
    </mxGraphModel>
  </diagram>
</mxfile>
